PathFileType	4	(X/Y/Z)	pose_F01_0-48.trc
DataRate	CameraRate	NumFrames	NumMarkers	Units	OrigDataRate	OrigDataStartFrame	OrigNumFrames
30	30	6	21	m	30	36	48
Frame#	Time	CHip			RHip			RKnee			RAnkle			RBigToe			RSmallToe			RHeel			LHip			LKnee			LAnkle			LBigToe			LSmallToe			LHeel			Neck			Nose			RShoulder			RElbow			RWrist			LShoulder			LElbow			LWrist			
		X1	Y1	Z1	X2	Y2	Z2	X3	Y3	Z3	X4	Y4	Z4	X5	Y5	Z5	X6	Y6	Z6	X7	Y7	Z7	X8	Y8	Z8	X9	Y9	Z9	X10	Y10	Z10	X11	Y11	Z11	X12	Y12	Z12	X13	Y13	Z13	X14	Y14	Z14	X15	Y15	Z15	X16	Y16	Z16	X17	Y17	Z17	X18	Y18	Z18	X19	Y19	Z19	X20	Y20	Z20	X21	Y21	Z21	
36	1.2	-0.1856259618694193	1.8668722095485588	-0.4852808037394255	-0.20372422963984693	1.8629058845494875	-0.437482824969578	-0.23319217492286295	1.7176651036089754	-0.4469825931800942													-0.1698115206073521	1.8706799194856707	-0.5254306448048784	-0.16041021999578628	1.7299793536164743	-0.5771409836679988	-0.09451690413725052	1.613194187506258	-0.6005916477980401	-0.10442142848218214	1.5865983175031708	-0.6669438745742106	-0.0910047629299586	1.5957616164699249	-0.6739934853780902	-0.08911636369270604	1.6000188557775303	-0.5962836548411904	-0.20033884273787267	2.024411305828308	-0.48687594892998187	-0.2568693991089432	2.0716045071324887	-0.4950560611599814	-0.22387773954110454	2.0255591341891477	-0.4275802888468662	-0.1690512565335688	1.9714262332373997	-0.5302127070479629	-0.4861727347235673	1.897177962105411	-1.2055471213459306	-0.17511920555795502	2.027926125031007	-0.547305252379458	-0.15775756927035375	1.9465207457487217	-0.570199484830752	-0.17241545052135235	1.877716222930883	-0.6133159136065094
37	1.2333333333333334	-0.19134620298273328	1.8653765718833664	-0.4780671217666945	-0.20827325791858292	1.861319633709341	-0.4270894660681374	-0.22987240641673515	1.716959450267816	-0.42798284201892817													-0.17449761955461898	1.8683485473003485	-0.5322974326470528	-0.17040058560282648	1.7281957218659658	-0.5618360549344066	-0.10027909064035662	1.620164780144566	-0.5952635675391066	-0.11132960695307963	1.5932041672886357	-0.6521882530870766	-0.09944840352931571	1.6062601885702044	-0.6618238866061302	-0.09338679703607641	1.617638016423232	-0.5902209504534095	-0.20724930997433583	2.025442600060959	-0.47547768321777867	-0.2622205196705226	2.071165784717328	-0.4865499994815813	-0.22764572288123613	2.025442008538557	-0.41458354955015025	-0.1690512565335688	1.9714262332373997	-0.5302127070479629	-0.4955679365724329	1.8916748826303929	-1.1913781317201793	-0.18208865290378254	2.0292191568409415	-0.5435207192648559	-0.15998031807676671	1.9453455357593743	-0.5676908305321257	-0.1742066226100209	1.873014984332417	-0.6072650721779053
38	1.2666666666666666	-0.192610588562039	1.871538161531524	-0.4648143609159693	-0.20758639920942482	1.868640424317434	-0.416349302199722	-0.23333701056032544	1.719869593854878	-0.43807360893965397													-0.17308511219728018	1.8747490881998476	-0.5181091995702671	-0.18837064979496987	1.7260986615899563	-0.5463202172815331	-0.1071650325406753	1.6323294170307254	-0.5506823143113514	-0.11770234056867127	1.6022767777566356	-0.6038752069060737	-0.10523428609957244	1.6107224184837607	-0.6140880361387497	-0.09940152074271844	1.645283638914623	-0.5455031249669248	-0.20710774645219288	2.026325597511674	-0.4660364326757067	-0.267571640232102	2.070727062302167	-0.47804393780318116	-0.22925381716653323	2.026176266827224	-0.4036304578617624	-0.1690512565335688	1.9714262332373997	-0.5302127070479629	-0.49682826461038104	1.895675760279049	-1.164676484640381	-0.18420188578952204	2.027994851951447	-0.5321557599163059	-0.15973719353594465	1.9465523265684954	-0.5679440993423408	-0.16961838257464668	1.8751655693674425	-0.6122504916922562
39	1.3	-0.19775802661214928	1.8647813890051161	-0.4743359987020107	-0.21170913362944802	1.860644673711034	-0.4223338379258811	-0.23648454962641127	1.716556643206231	-0.44792348372221236													-0.18082062485343478	1.8676016563251645	-0.5284718437058041	-0.19619322111875484	1.7188097690485167	-0.519251146171063	-0.11230670126460138	1.6233083977255773	-0.5079461986903497	-0.19602486774115552	1.5714328971997489	-0.77525582525815	-0.18343041069427346	1.5785834462925128	-0.791411406153883	-0.09826753231710214	1.6232275384328485	-0.48393796951941687	-0.2115677461795644	2.0228941716130873	-0.4539356145853736	-0.2685043225384289	2.0667312667748527	-0.4631156721300568	-0.2319733800777047	2.0195806253932247	-0.39368958693171796	-0.1690512565335688	1.9714262332373997	-0.5302127070479629	-0.5030601028172234	1.8889936281999329	-1.161433695722616	-0.18606841999470092	2.0279550307497765	-0.5198907407264733	-0.16032335046353838	1.9477101985452296	-0.5707857041306813	-0.1658807819743732	1.8782102643204788	-0.6202821206674748
40	1.3333333333333333	-0.1985487155215076	1.86496081962569	-0.46867798889507284	-0.21349850108107524	1.861977584855383	-0.42017598804715595	-0.23849368230723988	1.7157191104778258	-0.454738300736983													-0.18277868452366516	1.8700693261897086	-0.5176481437318708	-0.19983426817890063	1.7196922322989352	-0.5066347921778945	-0.13065335691435886	1.6150672227997989	-0.4864597503156422	-0.27434739491363974	1.5405890166428624	-0.9466364436102261	-0.26162653528897445	1.546444474101265	-0.9687347761690162	-0.11933146257287679	1.6128371932419476	-0.4622705340687199	-0.21234452884062827	2.0167698873621815	-0.44568864147077264	-0.2669601222429981	2.0595337404152	-0.44700247930040593	-0.23056890763978724	2.0142178397475563	-0.3793336788880616	-0.1690512565335688	1.9714262332373997	-0.5302127070479629	-0.4945712318433651	1.8927897861304672	-1.1656382509836571	-0.188786633723779	2.021405916813782	-0.5093196716213493	-0.15779071274066098	1.9454280755235107	-0.5717483544307631	-0.1619975190536021	1.8775403850318746	-0.6280173168676892
41	1.3666666666666667	-0.1993642592626641	1.8646885033589637	-0.4631012584217286	-0.21708732348777823	1.8606796874021034	-0.41542796675615073	-0.23915198859124565	1.7148886056748676	-0.4674594201401675													-0.1839171711802881	1.8673040172789788	-0.5116586978693721	-0.2116426193550662	1.7187680809733248	-0.5114412000650813	-0.15354566464783437	1.6030133981666388	-0.45814577181456884	-0.35266992208612397	1.5097451360859757	-1.1180170619623024	-0.33982265988367544	1.5143055019100171	-1.1460581461841495	-0.14225017613429508	1.5937026393417986	-0.4322056866215308	-0.212939915886819	2.0148876624616325	-0.438589360820816	-0.26865706306115444	2.0591152888428663	-0.4358478998860132	-0.2318189610744152	2.007568978339132	-0.3651978307724147	-0.1690512565335688	1.9714262332373997	-0.5302127070479629	-0.48949010564103607	1.8992559876373838	-1.1619224256750618	-0.18864759386162464	2.019839902269014	-0.5080306747862636	-0.15520597992809215	1.9432735788283082	-0.5732975366728819	-0.15904852806749992	1.8761231623593824	-0.6300456123385978
